<mxfile host="app.diagrams.net" agent="Mozilla/5.0 (Windows NT 10.0; Win64; x64) AppleWebKit/537.36 (KHTML, like Gecko) Chrome/131.0.0.0 Safari/537.36" version="25.0.3">
  <diagram name="페이지-1" id="FYHUW3UV-XKHTjpni51G">
    <mxGraphModel dx="1687" dy="868" grid="1" gridSize="10" guides="1" tooltips="1" connect="1" arrows="1" fold="1" page="1" pageScale="1" pageWidth="1169" pageHeight="827" math="0" shadow="0">
      <root>
        <mxCell id="0" />
        <mxCell id="1" parent="0" />
        <mxCell id="oAIQoc7fv8HOp4kehAPD-1" value="Character" style="swimlane;fontStyle=1;align=center;verticalAlign=top;childLayout=stackLayout;horizontal=1;startSize=26;horizontalStack=0;resizeParent=1;resizeParentMax=0;resizeLast=0;collapsible=1;marginBottom=0;whiteSpace=wrap;html=1;" vertex="1" parent="1">
          <mxGeometry x="255" y="278" width="160" height="130" as="geometry" />
        </mxCell>
        <mxCell id="oAIQoc7fv8HOp4kehAPD-2" value="- hp : int&lt;br&gt;- damage : int&lt;br&gt;- target_id : const int" style="text;strokeColor=none;fillColor=none;align=left;verticalAlign=top;spacingLeft=4;spacingRight=4;overflow=hidden;rotatable=0;points=[[0,0.5],[1,0.5]];portConstraint=eastwest;whiteSpace=wrap;html=1;" vertex="1" parent="oAIQoc7fv8HOp4kehAPD-1">
          <mxGeometry y="26" width="160" height="54" as="geometry" />
        </mxCell>
        <mxCell id="oAIQoc7fv8HOp4kehAPD-3" value="" style="line;strokeWidth=1;fillColor=none;align=left;verticalAlign=middle;spacingTop=-1;spacingLeft=3;spacingRight=3;rotatable=0;labelPosition=right;points=[];portConstraint=eastwest;strokeColor=inherit;" vertex="1" parent="oAIQoc7fv8HOp4kehAPD-1">
          <mxGeometry y="80" width="160" height="8" as="geometry" />
        </mxCell>
        <mxCell id="oAIQoc7fv8HOp4kehAPD-4" value="+ Attack()&lt;div&gt;+ Damaged(int)&lt;/div&gt;" style="text;strokeColor=none;fillColor=none;align=left;verticalAlign=top;spacingLeft=4;spacingRight=4;overflow=hidden;rotatable=0;points=[[0,0.5],[1,0.5]];portConstraint=eastwest;whiteSpace=wrap;html=1;" vertex="1" parent="oAIQoc7fv8HOp4kehAPD-1">
          <mxGeometry y="88" width="160" height="42" as="geometry" />
        </mxCell>
        <mxCell id="oAIQoc7fv8HOp4kehAPD-19" style="edgeStyle=orthogonalEdgeStyle;rounded=0;orthogonalLoop=1;jettySize=auto;html=1;exitX=0.5;exitY=0;exitDx=0;exitDy=0;entryX=0.5;entryY=1;entryDx=0;entryDy=0;endArrow=block;endFill=0;" edge="1" parent="1" source="oAIQoc7fv8HOp4kehAPD-5" target="oAIQoc7fv8HOp4kehAPD-1">
          <mxGeometry relative="1" as="geometry" />
        </mxCell>
        <mxCell id="oAIQoc7fv8HOp4kehAPD-5" value="Player" style="swimlane;fontStyle=1;align=center;verticalAlign=top;childLayout=stackLayout;horizontal=1;startSize=26;horizontalStack=0;resizeParent=1;resizeParentMax=0;resizeLast=0;collapsible=1;marginBottom=0;whiteSpace=wrap;html=1;" vertex="1" parent="1">
          <mxGeometry x="255" y="448" width="160" height="100" as="geometry" />
        </mxCell>
        <mxCell id="oAIQoc7fv8HOp4kehAPD-6" value="- controller : PlayerControl" style="text;strokeColor=none;fillColor=none;align=left;verticalAlign=top;spacingLeft=4;spacingRight=4;overflow=hidden;rotatable=0;points=[[0,0.5],[1,0.5]];portConstraint=eastwest;whiteSpace=wrap;html=1;" vertex="1" parent="oAIQoc7fv8HOp4kehAPD-5">
          <mxGeometry y="26" width="160" height="24" as="geometry" />
        </mxCell>
        <mxCell id="oAIQoc7fv8HOp4kehAPD-7" value="" style="line;strokeWidth=1;fillColor=none;align=left;verticalAlign=middle;spacingTop=-1;spacingLeft=3;spacingRight=3;rotatable=0;labelPosition=right;points=[];portConstraint=eastwest;strokeColor=inherit;" vertex="1" parent="oAIQoc7fv8HOp4kehAPD-5">
          <mxGeometry y="50" width="160" height="8" as="geometry" />
        </mxCell>
        <mxCell id="oAIQoc7fv8HOp4kehAPD-8" value="+ ButtonInput(&lt;span style=&quot;background-color: initial;&quot;&gt;)&lt;/span&gt;&lt;div&gt;&lt;span style=&quot;background-color: initial;&quot;&gt;+ Talk()&lt;/span&gt;&lt;/div&gt;" style="text;strokeColor=none;fillColor=none;align=left;verticalAlign=top;spacingLeft=4;spacingRight=4;overflow=hidden;rotatable=0;points=[[0,0.5],[1,0.5]];portConstraint=eastwest;whiteSpace=wrap;html=1;" vertex="1" parent="oAIQoc7fv8HOp4kehAPD-5">
          <mxGeometry y="58" width="160" height="42" as="geometry" />
        </mxCell>
        <mxCell id="oAIQoc7fv8HOp4kehAPD-13" value="PlayerControl" style="html=1;whiteSpace=wrap;" vertex="1" parent="1">
          <mxGeometry x="85" y="461" width="110" height="50" as="geometry" />
        </mxCell>
        <mxCell id="oAIQoc7fv8HOp4kehAPD-18" style="edgeStyle=orthogonalEdgeStyle;rounded=0;orthogonalLoop=1;jettySize=auto;html=1;exitX=0;exitY=0.5;exitDx=0;exitDy=0;entryX=1;entryY=0.5;entryDx=0;entryDy=0;dashed=1;endArrow=open;endFill=0;" edge="1" parent="1" source="oAIQoc7fv8HOp4kehAPD-6" target="oAIQoc7fv8HOp4kehAPD-13">
          <mxGeometry relative="1" as="geometry" />
        </mxCell>
        <mxCell id="oAIQoc7fv8HOp4kehAPD-20" style="edgeStyle=orthogonalEdgeStyle;rounded=0;orthogonalLoop=1;jettySize=auto;html=1;exitX=0.5;exitY=0;exitDx=0;exitDy=0;entryX=0.5;entryY=1;entryDx=0;entryDy=0;entryPerimeter=0;endArrow=block;endFill=0;" edge="1" parent="1" target="oAIQoc7fv8HOp4kehAPD-4">
          <mxGeometry relative="1" as="geometry">
            <mxPoint x="565" y="448" as="sourcePoint" />
            <Array as="points">
              <mxPoint x="565" y="428" />
              <mxPoint x="335" y="428" />
            </Array>
          </mxGeometry>
        </mxCell>
        <mxCell id="oAIQoc7fv8HOp4kehAPD-21" value="Monster" style="swimlane;fontStyle=1;align=center;verticalAlign=top;childLayout=stackLayout;horizontal=1;startSize=26;horizontalStack=0;resizeParent=1;resizeParentMax=0;resizeLast=0;collapsible=1;marginBottom=0;whiteSpace=wrap;html=1;" vertex="1" parent="1">
          <mxGeometry x="725" y="278" width="160" height="130" as="geometry" />
        </mxCell>
        <mxCell id="oAIQoc7fv8HOp4kehAPD-22" value="- hp : int&lt;br&gt;- damage : int&lt;br&gt;- target_id : const int" style="text;strokeColor=none;fillColor=none;align=left;verticalAlign=top;spacingLeft=4;spacingRight=4;overflow=hidden;rotatable=0;points=[[0,0.5],[1,0.5]];portConstraint=eastwest;whiteSpace=wrap;html=1;" vertex="1" parent="oAIQoc7fv8HOp4kehAPD-21">
          <mxGeometry y="26" width="160" height="54" as="geometry" />
        </mxCell>
        <mxCell id="oAIQoc7fv8HOp4kehAPD-23" value="" style="line;strokeWidth=1;fillColor=none;align=left;verticalAlign=middle;spacingTop=-1;spacingLeft=3;spacingRight=3;rotatable=0;labelPosition=right;points=[];portConstraint=eastwest;strokeColor=inherit;" vertex="1" parent="oAIQoc7fv8HOp4kehAPD-21">
          <mxGeometry y="80" width="160" height="8" as="geometry" />
        </mxCell>
        <mxCell id="oAIQoc7fv8HOp4kehAPD-24" value="+ Attack()&lt;div&gt;+ Damaged(int)&lt;/div&gt;" style="text;strokeColor=none;fillColor=none;align=left;verticalAlign=top;spacingLeft=4;spacingRight=4;overflow=hidden;rotatable=0;points=[[0,0.5],[1,0.5]];portConstraint=eastwest;whiteSpace=wrap;html=1;" vertex="1" parent="oAIQoc7fv8HOp4kehAPD-21">
          <mxGeometry y="88" width="160" height="42" as="geometry" />
        </mxCell>
        <mxCell id="oAIQoc7fv8HOp4kehAPD-37" style="edgeStyle=orthogonalEdgeStyle;rounded=0;orthogonalLoop=1;jettySize=auto;html=1;exitX=0.5;exitY=0;exitDx=0;exitDy=0;entryX=0.5;entryY=1;entryDx=0;entryDy=0;endArrow=block;endFill=0;" edge="1" parent="1" source="oAIQoc7fv8HOp4kehAPD-25" target="oAIQoc7fv8HOp4kehAPD-21">
          <mxGeometry relative="1" as="geometry" />
        </mxCell>
        <mxCell id="oAIQoc7fv8HOp4kehAPD-25" value="Orc" style="swimlane;fontStyle=1;align=center;verticalAlign=top;childLayout=stackLayout;horizontal=1;startSize=26;horizontalStack=0;resizeParent=1;resizeParentMax=0;resizeLast=0;collapsible=1;marginBottom=0;whiteSpace=wrap;html=1;" vertex="1" parent="1">
          <mxGeometry x="725" y="448" width="160" height="100" as="geometry" />
        </mxCell>
        <mxCell id="oAIQoc7fv8HOp4kehAPD-26" value="- name : string" style="text;strokeColor=none;fillColor=none;align=left;verticalAlign=top;spacingLeft=4;spacingRight=4;overflow=hidden;rotatable=0;points=[[0,0.5],[1,0.5]];portConstraint=eastwest;whiteSpace=wrap;html=1;" vertex="1" parent="oAIQoc7fv8HOp4kehAPD-25">
          <mxGeometry y="26" width="160" height="24" as="geometry" />
        </mxCell>
        <mxCell id="oAIQoc7fv8HOp4kehAPD-27" value="" style="line;strokeWidth=1;fillColor=none;align=left;verticalAlign=middle;spacingTop=-1;spacingLeft=3;spacingRight=3;rotatable=0;labelPosition=right;points=[];portConstraint=eastwest;strokeColor=inherit;" vertex="1" parent="oAIQoc7fv8HOp4kehAPD-25">
          <mxGeometry y="50" width="160" height="8" as="geometry" />
        </mxCell>
        <mxCell id="oAIQoc7fv8HOp4kehAPD-28" value="+ Bash()" style="text;strokeColor=none;fillColor=none;align=left;verticalAlign=top;spacingLeft=4;spacingRight=4;overflow=hidden;rotatable=0;points=[[0,0.5],[1,0.5]];portConstraint=eastwest;whiteSpace=wrap;html=1;" vertex="1" parent="oAIQoc7fv8HOp4kehAPD-25">
          <mxGeometry y="58" width="160" height="42" as="geometry" />
        </mxCell>
        <mxCell id="oAIQoc7fv8HOp4kehAPD-29" value="NPC" style="swimlane;fontStyle=1;align=center;verticalAlign=top;childLayout=stackLayout;horizontal=1;startSize=26;horizontalStack=0;resizeParent=1;resizeParentMax=0;resizeLast=0;collapsible=1;marginBottom=0;whiteSpace=wrap;html=1;" vertex="1" parent="1">
          <mxGeometry x="485" y="448" width="160" height="100" as="geometry" />
        </mxCell>
        <mxCell id="oAIQoc7fv8HOp4kehAPD-30" value="- name : string" style="text;strokeColor=none;fillColor=none;align=left;verticalAlign=top;spacingLeft=4;spacingRight=4;overflow=hidden;rotatable=0;points=[[0,0.5],[1,0.5]];portConstraint=eastwest;whiteSpace=wrap;html=1;" vertex="1" parent="oAIQoc7fv8HOp4kehAPD-29">
          <mxGeometry y="26" width="160" height="24" as="geometry" />
        </mxCell>
        <mxCell id="oAIQoc7fv8HOp4kehAPD-31" value="" style="line;strokeWidth=1;fillColor=none;align=left;verticalAlign=middle;spacingTop=-1;spacingLeft=3;spacingRight=3;rotatable=0;labelPosition=right;points=[];portConstraint=eastwest;strokeColor=inherit;" vertex="1" parent="oAIQoc7fv8HOp4kehAPD-29">
          <mxGeometry y="50" width="160" height="8" as="geometry" />
        </mxCell>
        <mxCell id="oAIQoc7fv8HOp4kehAPD-32" value="+ Script()" style="text;strokeColor=none;fillColor=none;align=left;verticalAlign=top;spacingLeft=4;spacingRight=4;overflow=hidden;rotatable=0;points=[[0,0.5],[1,0.5]];portConstraint=eastwest;whiteSpace=wrap;html=1;" vertex="1" parent="oAIQoc7fv8HOp4kehAPD-29">
          <mxGeometry y="58" width="160" height="42" as="geometry" />
        </mxCell>
        <mxCell id="oAIQoc7fv8HOp4kehAPD-33" value="Slime" style="swimlane;fontStyle=1;align=center;verticalAlign=top;childLayout=stackLayout;horizontal=1;startSize=26;horizontalStack=0;resizeParent=1;resizeParentMax=0;resizeLast=0;collapsible=1;marginBottom=0;whiteSpace=wrap;html=1;" vertex="1" parent="1">
          <mxGeometry x="925" y="448" width="160" height="100" as="geometry" />
        </mxCell>
        <mxCell id="oAIQoc7fv8HOp4kehAPD-34" value="- name : string" style="text;strokeColor=none;fillColor=none;align=left;verticalAlign=top;spacingLeft=4;spacingRight=4;overflow=hidden;rotatable=0;points=[[0,0.5],[1,0.5]];portConstraint=eastwest;whiteSpace=wrap;html=1;" vertex="1" parent="oAIQoc7fv8HOp4kehAPD-33">
          <mxGeometry y="26" width="160" height="24" as="geometry" />
        </mxCell>
        <mxCell id="oAIQoc7fv8HOp4kehAPD-35" value="" style="line;strokeWidth=1;fillColor=none;align=left;verticalAlign=middle;spacingTop=-1;spacingLeft=3;spacingRight=3;rotatable=0;labelPosition=right;points=[];portConstraint=eastwest;strokeColor=inherit;" vertex="1" parent="oAIQoc7fv8HOp4kehAPD-33">
          <mxGeometry y="50" width="160" height="8" as="geometry" />
        </mxCell>
        <mxCell id="oAIQoc7fv8HOp4kehAPD-36" value="+ Heal()" style="text;strokeColor=none;fillColor=none;align=left;verticalAlign=top;spacingLeft=4;spacingRight=4;overflow=hidden;rotatable=0;points=[[0,0.5],[1,0.5]];portConstraint=eastwest;whiteSpace=wrap;html=1;" vertex="1" parent="oAIQoc7fv8HOp4kehAPD-33">
          <mxGeometry y="58" width="160" height="42" as="geometry" />
        </mxCell>
        <mxCell id="oAIQoc7fv8HOp4kehAPD-39" style="edgeStyle=orthogonalEdgeStyle;rounded=0;orthogonalLoop=1;jettySize=auto;html=1;exitX=0.5;exitY=0;exitDx=0;exitDy=0;entryX=0.5;entryY=1;entryDx=0;entryDy=0;entryPerimeter=0;endArrow=block;endFill=0;" edge="1" parent="1" source="oAIQoc7fv8HOp4kehAPD-33" target="oAIQoc7fv8HOp4kehAPD-24">
          <mxGeometry relative="1" as="geometry" />
        </mxCell>
      </root>
    </mxGraphModel>
  </diagram>
</mxfile>
